<svg xmlns="http://www.w3.org/2000/svg">
    <symbol id="vieclam" viewBox="0 0 24 24">
        <svg width="20" height="20" viewBox="0 0 20 20" fill="none" xmlns="http://www.w3.org/2000/svg">
            <path d="M10 9.99984C11.1051 9.99984 12.1649 9.56085 12.9463 8.77945C13.7277 7.99805 14.1667 6.93824 14.1667 5.83317C14.1667 4.7281 13.7277 3.66829 12.9463 2.88689C12.1649 2.10549 11.1051 1.6665 10 1.6665C8.89497 1.6665 7.83516 2.10549 7.05376 2.88689C6.27236 3.66829 5.83337 4.7281 5.83337 5.83317C5.83337 6.93824 6.27236 7.99805 7.05376 8.77945C7.83516 9.56085 8.89497 9.99984 10 9.99984Z" fill="#B3CCE5"/>
            <path opacity="0.4" d="M10 12.0835C5.82505 12.0835 2.42505 14.8835 2.42505 18.3335C2.42505 18.5668 2.60838 18.7502 2.84172 18.7502H17.1584C17.3917 18.7502 17.575 18.5668 17.575 18.3335C17.575 14.8835 14.175 12.0835 10 12.0835Z" fill="#B3CCE5"/>
            <path d="M18.975 17.2346L18.3417 16.6013C18.675 16.1013 18.8667 15.5013 18.8667 14.8596C18.8667 14.23 18.68 13.6145 18.3302 13.091C17.9804 12.5675 17.4832 12.1595 16.9015 11.9186C16.3199 11.6776 15.6798 11.6146 15.0623 11.7374C14.4448 11.8603 13.8776 12.1635 13.4324 12.6086C12.9872 13.0538 12.684 13.6211 12.5612 14.2386C12.4383 14.8561 12.5014 15.4961 12.7423 16.0778C12.9833 16.6595 13.3913 17.1567 13.9148 17.5064C14.4383 17.8562 15.0537 18.0429 15.6833 18.0429C16.325 18.0429 16.925 17.8513 17.425 17.5179L18.0583 18.1513C18.1833 18.2763 18.35 18.3429 18.5167 18.3429C18.6833 18.3429 18.85 18.2763 18.975 18.1513C19.2333 17.8929 19.2333 17.4846 18.975 17.2346Z" fill="#B3CCE5"/>
        </svg>
    </symbol>
    <symbol id="lytuong" viewBox="0 0 24 24">
        <svg width="20" height="20" viewBox="0 0 20 20" fill="none" xmlns="http://www.w3.org/2000/svg">
            <path d="M12.0839 12.4309V11.6748C12.0839 11.6748 14.4666 11.7486 15.599 10.5941C15.599 10.5941 13.954 10.1293 14.249 7.13063C14.5441 4.13562 13.8802 1.50577 11.4716 1.72708C11.4716 1.72708 10.4278 0.469321 8.35122 1.26233C7.63935 1.53528 5.72506 2.21764 5.82095 6.37081C5.91685 10.5203 4.34558 10.5461 4.34558 10.5461C4.34558 10.5461 5.15704 11.7264 7.90861 11.7006V12.4752L9.99995 18.5832L12.0876 12.4862L12.0839 12.4309Z" fill="#B3CCE5"/>
            <path d="M17.7014 18.6718L17.2809 16.3481C17.1445 15.5956 16.6576 14.9502 15.9716 14.6108L13.338 13.3125C13.1868 13.2387 13.0392 13.1539 12.8917 13.0728L13.7216 15.5219L12.5597 15.4334L9.99998 18.5833L7.4402 15.4334L6.27835 15.5219L7.12669 13.0728L6.59924 13.342L4.0284 14.6108C3.34235 14.9502 2.85548 15.5956 2.71901 16.3481L2.29853 18.6718C2.26902 18.8415 2.39811 19.0001 2.57147 19.0001H9.90039H10.0922H17.4211C17.6018 19.0001 17.7309 18.8415 17.7014 18.6718Z" fill="#B3CCE5"/>
        </svg>
    </symbol>
    <!-- Thêm nhiều biểu tượng khác nếu cần -->
</svg>
